<svg width="9" height="20" viewBox="0 0 9 20" fill="none" xmlns="http://www.w3.org/2000/svg">
<path d="M8.75 20H0V0H8.75V20Z" stroke="none"/>
<g clip-path="url(#clip0_267_122)">
<path d="M4.375 5.0625C4.375 4.7144 4.51328 4.38056 4.75942 4.13442C5.00556 3.88828 5.3394 3.75 5.6875 3.75C6.0356 3.75 6.36943 3.88828 6.61558 4.13442C6.86172 4.38056 7 4.7144 7 5.0625C7 5.4106 6.86172 5.74444 6.61558 5.99058C6.36943 6.23672 6.0356 6.375 5.6875 6.375C5.3394 6.375 5.00556 6.23672 4.75942 5.99058C4.51328 5.74444 4.375 5.4106 4.375 5.0625ZM3.45898 9.19961C3.43164 9.21055 3.40703 9.22148 3.37969 9.23242L3.16094 9.32812C2.7125 9.52773 2.36797 9.90781 2.21211 10.3727L2.14101 10.5859C1.98789 11.0453 1.49297 11.2914 1.03359 11.1383C0.574217 10.9852 0.328123 10.4902 0.481248 10.0309L0.552342 9.81758C0.864061 8.88516 1.55312 8.125 2.45 7.72578L2.66875 7.63008C3.2375 7.37852 3.85273 7.24727 4.47617 7.24727C5.6957 7.24727 6.79492 7.98008 7.2625 9.10391L7.68359 10.1129L8.26875 10.4055C8.70078 10.6215 8.87578 11.1465 8.65976 11.5785C8.44375 12.0105 7.91875 12.1855 7.48672 11.9695L6.7539 11.6059C6.47226 11.4637 6.25078 11.2285 6.13047 10.9359L5.86797 10.307L5.34023 12.098L6.69375 13.5746C6.8414 13.7359 6.94531 13.9301 7 14.1434L7.62891 16.6617C7.74648 17.1293 7.46211 17.6051 6.9918 17.7227C6.52148 17.8402 6.04844 17.5559 5.93086 17.0855L5.3293 14.6766L3.39609 12.5684C2.9914 12.1281 2.84101 11.5129 2.99414 10.9359L3.45625 9.19961H3.45898ZM1.87851 14.6328L2.56211 12.9266C2.61953 13.0086 2.68515 13.0852 2.75351 13.1617L3.8664 14.3758L3.46992 15.3656C3.4043 15.5297 3.30586 15.6801 3.18008 15.8059L1.49297 17.493C1.15117 17.8348 0.596092 17.8348 0.254295 17.493C-0.0875015 17.1512 -0.0875015 16.5961 0.254295 16.2543L1.87851 14.6328Z" fill="white"/>
</g>
<defs>
<clipPath id="clip0_267_122">
<path d="M0 3.75H8.75V17.75H0V3.75Z" fill="white"/>
</clipPath>
</defs>
</svg>
