<svg width="20" height="24" viewBox="0 0 20 24" fill="none" xmlns="http://www.w3.org/2000/svg">
<path d="M20 24H0V0H20V24Z" stroke="none"/>
<g clip-path="url(#clip0_267_119)">
<path d="M6.50001 16C10.0906 16 13 13.5375 13 10.5C13 7.4625 10.0906 5 6.50001 5C2.90938 5 6.32051e-06 7.4625 6.32051e-06 10.5C6.32051e-06 11.7063 0.459381 12.8219 1.23751 13.7312C1.12813 14.025 0.965631 14.2844 0.793756 14.5031C0.643756 14.6969 0.490631 14.8469 0.378131 14.95C0.321881 15 0.275006 15.0406 0.243756 15.0656C0.228131 15.0781 0.215631 15.0875 0.209381 15.0906L0.203131 15.0969C0.0312563 15.225 -0.0437437 15.45 0.0250063 15.6531C0.0937563 15.8562 0.284381 16 0.500006 16C1.18126 16 1.86876 15.825 2.44063 15.6094C2.72813 15.5 2.99688 15.3781 3.23126 15.2531C4.19063 15.7281 5.30626 16 6.50001 16ZM14 10.5C14 14.0094 10.9031 16.6531 7.23438 16.9688C7.99376 19.2937 10.5125 21 13.5 21C14.6938 21 15.8094 20.7281 16.7719 20.2531C17.0063 20.3781 17.2719 20.5 17.5594 20.6094C18.1313 20.825 18.8188 21 19.5 21C19.7156 21 19.9094 20.8594 19.975 20.6531C20.0406 20.4469 19.9688 20.2219 19.7938 20.0938L19.7875 20.0875C19.7813 20.0812 19.7688 20.075 19.7531 20.0625C19.7219 20.0375 19.675 20 19.6188 19.9469C19.5063 19.8438 19.3531 19.6938 19.2031 19.5C19.0313 19.2812 18.8688 19.0187 18.7594 18.7281C19.5375 17.8219 19.9969 16.7063 19.9969 15.4969C19.9969 12.5969 17.3438 10.2188 13.9781 10.0125C13.9906 10.1719 13.9969 10.3344 13.9969 10.4969L14 10.5Z" fill="#9333EA"/>
</g>
<defs>
<clipPath id="clip0_267_119">
<path d="M0 5H20V21H0V5Z" fill="white"/>
</clipPath>
</defs>
</svg>
