<svg width="18" height="20" viewBox="0 0 18 20" fill="none" xmlns="http://www.w3.org/2000/svg">
<path d="M17.5 20H0V0H17.5V20Z" stroke="none"/>
<g clip-path="url(#clip0_267_134)">
<path d="M2.625 5.5C2.625 5.01602 3.01602 4.625 3.5 4.625H4.375C4.85898 4.625 5.25 5.01602 5.25 5.5V9.875V11.625V16C5.25 16.484 4.85898 16.875 4.375 16.875H3.5C3.01602 16.875 2.625 16.484 2.625 16V14.25H1.75C1.26602 14.25 0.875 13.859 0.875 13.375V11.625C0.391016 11.625 0 11.234 0 10.75C0 10.266 0.391016 9.875 0.875 9.875V8.125C0.875 7.64102 1.26602 7.25 1.75 7.25H2.625V5.5ZM14.875 5.5V7.25H15.75C16.234 7.25 16.625 7.64102 16.625 8.125V9.875C17.109 9.875 17.5 10.266 17.5 10.75C17.5 11.234 17.109 11.625 16.625 11.625V13.375C16.625 13.859 16.234 14.25 15.75 14.25H14.875V16C14.875 16.484 14.484 16.875 14 16.875H13.125C12.641 16.875 12.25 16.484 12.25 16V11.625V9.875V5.5C12.25 5.01602 12.641 4.625 13.125 4.625H14C14.484 4.625 14.875 5.01602 14.875 5.5ZM11.375 9.875V11.625H6.125V9.875H11.375Z" fill="white"/>
</g>
<defs>
<clipPath id="clip0_267_134">
<path d="M0 3.75H17.5V17.75H0V3.75Z" fill="white"/>
</clipPath>
</defs>
</svg>
