<svg width="16" height="24" viewBox="0 0 16 24" fill="none" xmlns="http://www.w3.org/2000/svg">
<path d="M16 24H0V0H16V24Z" stroke="none"/>
<path d="M16 21H0V5H16V21Z" stroke="none"/>
<path d="M2 7C2 6.44687 1.55313 6 1 6C0.446875 6 0 6.44687 0 7V17.5C0 18.8813 1.11875 20 2.5 20H15C15.5531 20 16 19.5531 16 19C16 18.4469 15.5531 18 15 18H2.5C2.225 18 2 17.775 2 17.5V7ZM14.7063 9.70625C15.0969 9.31563 15.0969 8.68125 14.7063 8.29063C14.3156 7.9 13.6812 7.9 13.2906 8.29063L10 11.5844L8.20625 9.79063C7.81563 9.4 7.18125 9.4 6.79063 9.79063L3.29063 13.2906C2.9 13.6812 2.9 14.3156 3.29063 14.7063C3.68125 15.0969 4.31563 15.0969 4.70625 14.7063L7.5 11.9156L9.29375 13.7094C9.68437 14.1 10.3188 14.1 10.7094 13.7094L14.7094 9.70937L14.7063 9.70625Z" fill="#4F46E5"/>
</svg>
