<svg width="9" height="12" viewBox="0 0 9 12" fill="none" xmlns="http://www.w3.org/2000/svg">
<g clip-path="url(#clip0_304_964)">
<path d="M3.9703 11.0297C4.26327 11.3227 4.73905 11.3227 5.03202 11.0297L8.78202 7.27969C9.07499 6.98672 9.07499 6.51094 8.78202 6.21797C8.48905 5.925 8.01327 5.925 7.7203 6.21797L5.24999 8.69062V1.5C5.24999 1.08516 4.91483 0.75 4.49999 0.75C4.08514 0.75 3.74999 1.08516 3.74999 1.5V8.68828L1.27968 6.22031C0.986706 5.92734 0.510925 5.92734 0.217957 6.22031C-0.0750122 6.51328 -0.0750122 6.98906 0.217957 7.28203L3.96796 11.032L3.9703 11.0297Z" fill="#10B981"/>
</g>
<defs>
<clipPath id="clip0_304_964">
<path d="M0 0H9V12H0V0Z" fill="white"/>
</clipPath>
</defs>
</svg>
