<svg width="12" height="12" viewBox="0 0 12 12" fill="none" xmlns="http://www.w3.org/2000/svg">
<g clip-path="url(#clip0_304_958)">
<path d="M1.11562 7.04099L5.35078 10.9949C5.52656 11.159 5.75859 11.2504 6 11.2504C6.24141 11.2504 6.47344 11.159 6.64922 10.9949L10.8844 7.04099C11.5969 6.37771 12 5.44724 12 4.47459V4.33865C12 2.70037 10.8164 1.30349 9.20156 1.03396C8.13281 0.855838 7.04531 1.20506 6.28125 1.96912L6 2.25037L5.71875 1.96912C4.95469 1.20506 3.86719 0.855838 2.79844 1.03396C1.18359 1.30349 0 2.70037 0 4.33865V4.47459C0 5.44724 0.403125 6.37771 1.11562 7.04099Z" fill="#6366F1"/>
</g>
<defs>
<clipPath id="clip0_304_958">
<path d="M0 0H12V12H0V0Z" fill="white"/>
</clipPath>
</defs>
</svg>
