<svg width="14" height="20" viewBox="0 0 14 20" fill="none" xmlns="http://www.w3.org/2000/svg">
<path d="M14 20H0V0H14V20Z" stroke="none"/>
<g clip-path="url(#clip0_267_126)">
<path d="M6.24258 16.5767L1.30156 11.9638C1.18672 11.8572 1.07734 11.7424 0.976172 11.6248H3.35508C3.97305 11.6248 4.53086 11.2529 4.76875 10.6814L5.05586 9.99236L6.40391 12.9865C6.50781 13.2189 6.73477 13.3693 6.98906 13.372C7.24336 13.3748 7.47578 13.2353 7.59063 13.0084L8.75 10.6869L8.79648 10.7799C9.05625 11.2994 9.58672 11.6275 10.1664 11.6275H13.0238C12.9227 11.7451 12.8133 11.8599 12.6984 11.9666L7.75742 16.5767C7.55234 16.7681 7.28164 16.8748 7 16.8748C6.71836 16.8748 6.44766 16.7681 6.24258 16.5767ZM13.773 10.3123H10.1637C10.0816 10.3123 10.0051 10.2658 9.9668 10.192L9.33242 8.92595C9.22031 8.70447 8.99336 8.56228 8.74453 8.56228C8.4957 8.56228 8.26875 8.70173 8.15664 8.92595L7.02461 11.19L5.63008 8.07556C5.52344 7.83767 5.28281 7.68455 5.02305 7.69001C4.76328 7.69548 4.52812 7.85134 4.42695 8.0947L3.55742 10.181C3.52461 10.2631 3.44258 10.315 3.35508 10.315H0.4375C0.366406 10.315 0.300781 10.326 0.237891 10.3451C0.0820312 9.90759 0 9.44275 0 8.9697V8.81111C0 6.89978 1.38086 5.27009 3.26484 4.95564C4.51172 4.74783 5.78047 5.15525 6.67188 6.04666L7 6.37478L7.32812 6.04666C8.21953 5.15525 9.48828 4.74783 10.7352 4.95564C12.6191 5.27009 14 6.89978 14 8.81111V8.9697C14 9.43181 13.9234 9.88572 13.773 10.3123Z" fill="white"/>
</g>
<defs>
<clipPath id="clip0_267_126">
<path d="M0 3.75H14V17.75H0V3.75Z" fill="white"/>
</clipPath>
</defs>
</svg>
