<svg width="18" height="20" viewBox="0 0 18 20" fill="none" xmlns="http://www.w3.org/2000/svg">
<g clip-path="url(#clip0_413_1296)">
<path d="M12.5 1.875C12.5 1.37772 12.3025 0.900805 11.9508 0.549175C11.5992 0.197544 11.1223 0 10.625 0C10.1277 0 9.65081 0.197544 9.29917 0.549175C8.94754 0.900805 8.75 1.37772 8.75 1.875C8.75 2.37228 8.94754 2.84919 9.29917 3.20083C9.65081 3.55246 10.1277 3.75 10.625 3.75C11.1223 3.75 11.5992 3.55246 11.9508 3.20083C12.3025 2.84919 12.5 2.37228 12.5 1.875ZM4.91016 6.85547C5.29688 6.46875 5.82422 6.25 6.375 6.25C6.44922 6.25 6.52344 6.25391 6.59375 6.26172L5.375 9.92188C5.01172 11.0156 5.44141 12.2188 6.42188 12.832L9.78906 14.9375L8.79688 18.4062C8.60547 19.0703 8.99219 19.7617 9.65625 19.9531C10.3203 20.1445 11.0117 19.7578 11.2031 19.0938L12.3242 15.1719C12.5547 14.3672 12.2227 13.5078 11.5156 13.0664L9.29688 11.6797L10.5039 8.46094L10.7031 8.94141C11.2891 10.3398 12.6523 11.25 14.168 11.25H15C15.6914 11.25 16.25 10.6914 16.25 10C16.25 9.30859 15.6914 8.75 15 8.75H14.168C13.6641 8.75 13.207 8.44531 13.0156 7.98047L12.7695 7.39453C12.1992 6.02344 11.0469 4.97656 9.625 4.53906L7.72266 3.95312C7.28906 3.82031 6.83594 3.75 6.37891 3.75C5.16797 3.75 4.00391 4.23047 3.14844 5.08984L2.24219 5.99219C1.75391 6.48047 1.75391 7.27344 2.24219 7.76172C2.73047 8.25 3.52344 8.25 4.01172 7.76172L4.91406 6.85938L4.91016 6.85547ZM3.5625 13.75H1.25C0.558594 13.75 0 14.3086 0 15C0 15.6914 0.558594 16.25 1.25 16.25H3.96875C4.71094 16.25 5.38281 15.8125 5.68359 15.1367L6.13281 14.125L5.76172 13.8906C5.07812 13.4648 4.57031 12.8438 4.28125 12.1367L3.5625 13.75Z" fill="#2563EB"/>
</g>
<defs>
<clipPath id="clip0_413_1296">
<path d="M0 0H17.5V20H0V0Z" fill="white"/>
</clipPath>
</defs>
</svg>
