<svg width="11" height="20" viewBox="0 0 11 20" fill="none" xmlns="http://www.w3.org/2000/svg">
<path d="M10.5 20H0V0H10.5V20Z" stroke="none"/>
<g clip-path="url(#clip0_267_130)">
<path d="M6.11133 4.625C2.73438 4.625 0 7.36758 0 10.75C0 14.1324 2.73438 16.875 6.11133 16.875C7.76836 16.875 9.26953 16.2133 10.3715 15.1414C10.5082 15.0074 10.5437 14.7996 10.4562 14.6301C10.3687 14.4605 10.1801 14.3648 9.99141 14.3977C9.72344 14.4441 9.45 14.4688 9.16836 14.4688C6.51875 14.4688 4.36953 12.3141 4.36953 9.65625C4.36953 7.85703 5.35391 6.29023 6.81133 5.46445C6.97813 5.36875 7.06289 5.17734 7.02187 4.99141C6.98086 4.80547 6.82227 4.66602 6.63086 4.64961C6.45859 4.63594 6.28633 4.62773 6.11133 4.62773V4.625Z" fill="white"/>
</g>
<defs>
<clipPath id="clip0_267_130">
<path d="M0 3.75H10.5V17.75H0V3.75Z" fill="white"/>
</clipPath>
</defs>
</svg>
