<svg width="12" height="24" viewBox="0 0 12 24" fill="none" xmlns="http://www.w3.org/2000/svg">
<path d="M12 24H0V0H12V24Z" stroke="none"/>
<g clip-path="url(#clip0_267_114)">
<path d="M8.5 17C8.8 16.0031 9.42188 15.1531 10.0375 14.3062C10.2 14.0844 10.3625 13.8625 10.5188 13.6375C11.1375 12.7469 11.5 11.6688 11.5 10.5031C11.5 7.4625 9.0375 5 6 5C2.9625 5 0.5 7.4625 0.5 10.5C0.5 11.6656 0.8625 12.7469 1.48125 13.6344C1.6375 13.8594 1.8 14.0813 1.9625 14.3031C2.58125 15.15 3.20312 16.0031 3.5 16.9969H8.5V17ZM6 21C7.38125 21 8.5 19.8813 8.5 18.5V18H3.5V18.5C3.5 19.8813 4.61875 21 6 21ZM3.5 10.5C3.5 10.775 3.275 11 3 11C2.725 11 2.5 10.775 2.5 10.5C2.5 8.56562 4.06562 7 6 7C6.275 7 6.5 7.225 6.5 7.5C6.5 7.775 6.275 8 6 8C4.61875 8 3.5 9.11875 3.5 10.5Z" fill="white"/>
</g>
<defs>
<clipPath id="clip0_267_114">
<path d="M0 5H12V21H0V5Z" fill="white"/>
</clipPath>
</defs>
</svg>
